<svg height="800" viewBox="0 0 24 24" width="800" xmlns="http://www.w3.org/2000/svg"><g fill="none"><path d="m21.4679537 3.20617761c.7135135 1.47335907-1.4548263 1.63088803-1.3436294 2.28880308.203861 1.18610039.0648649 2.94671815-.0926641 4.67953671-.2687258 2.9374517 1.9274132 9.9706563-2.650193 12.7969112-.8617761.5374517-2.9096525.8339768-4.9297297.8803089h-.0092665-.0092664c-2.0200772-.0463321-4.34594591-.3428572-5.20772197-.8803089-4.56833977-2.8262549-2.37220078-9.8594595-2.63166024-12.7969112-.16679536-1.73281856-.3057915-3.49343632-.09266409-4.67953671.11119691-.65791505-2.05714286-.8061776-1.34362934-2.28880308.61158301-1.26949807 2.12200772-.14826255 2.5019305-.54671815 1.93667954-2.01081081 4.29034749-2.54826255 6.14362934-2.5945946h1.019305c1.8440155.0926641 4.1976834.5930502 6.1436294 2.5945946.3799227.3984556 1.881081-.72277992 2.5019305.54671815zm-10.0355213 7.70038609c-.0833977.0370656-.2223938.9451738.203861.9915058.2872587.0277992 1.0749035.1204633 1.2602317 0 .36139-.2316602.3243243-.7876448.1204633-.9266409-.3428571-.2223939-1.4918919-.1111969-1.584556-.0648649zm-2.35366792-6.80154439c-.95444016-.11119692-2.55752896.77837837-2.7984556 2.66872586-.25945946 1.96447877 2.05714286 3.91042473 4.28108112 1.96447877 1.1953668-1.04710425 1.6123552-4.27181467-1.48262552-4.63320463zm6.44942082 0c-3.0949807.36138996-2.6779922 3.58610038-1.4826255 4.63320463 2.2239383 1.94594596 4.5405406 0 4.2810811-1.96447877-.2316602-1.89034749-1.834749-2.77992278-2.7984556-2.66872586z" fill="#8cc5e7"/><path d="m12.3127413 8.98841699c.5837838-.08339768 1.9830116.58378378 1.8903475 1.37142861-.1111969.9173745-3.6046332 1.0378378-3.7899614-.0555985-.1111969-.66718146.4169884-1.09343629 1.8996139-1.31583011zm7.8857143 7.38532821c-.2872587-.0092664-.4725869-.3891892-.4725869-.6208494 0-.4169885.0555985-.9081082.36139-1.1212356.6301158-.4355212 1.1305019 1.7513514.1111969 1.742085zm-15.78069498 0c-1.01930502.0092664-.51891892-2.1776062.11119691-1.742085.3057915.2131274.36138996.7042471.36138996 1.1212356 0 .2316602-.18532818.611583-.47258687.6208494zm13.84401548 6.7181467c.1853281.2687259.1945946.454054-.1019305.5930502-1.130502.5189189-2.1405406-.1760618-1.7606178-.3706564.8061776-.407722 1.3065637-1.0471042 1.8625483-.2223938zm-11.90733595.0926641c.55598456-.8247104 1.05637066-.1853282 1.86254827.2223938.37992278.1945946-.63011583.8895753-1.76061776.3706564-.2965251-.1389962-.28725869-.3243243-.10193051-.5930502z" fill="#b8937f"/><path d="m19.7351351 3.42857143c.0463321-.1945946.5281854-.28725869.7969112.04633204.3243244.3984556-.4725868.94517375-.5096525.72277993-.0926641-.6023166-.3428571-.57451738-.2872587-.76911197zm-14.85405402 0c.05559846.19459459-.19459459.16679537-.28725869.76911197-.03706563.22239382-.83397683-.32432433-.50965251-.72277993.25945946-.33359073.74131275-.24092664.7969112-.04633204zm10.86023162 4.51274131c-.5834174 0-1.0563706-.47295325-1.0563706-1.05637066 0-.5834174.4729532-1.05637065 1.0563706-1.05637065s1.0563707.47295325 1.0563707 1.05637065c0 .58341741-.4729533 1.05637066-1.0563707 1.05637066zm-.2779922-1.17683398c.184237 0 .3335907-.14935365.3335907-.33359073 0-.18423707-.1493537-.33359073-.3335907-.33359073-.1842371 0-.3335908.14935366-.3335908.33359073 0 .18423708.1493537.33359073.3335908.33359073zm-4.1050193 2.66872587c.1111969-.42625482.5003861-.56525096.815444-.57451737.8061776-.01853282 1.1119691.41698842 1.1397683.75984556.0555985.58378378-2.2054054.72277988-1.9552123-.18532819zm-2.48339773-1.49189189c-.5834174 0-1.05637065-.47295325-1.05637065-1.05637066 0-.5834174.47295325-1.05637065 1.05637065-1.05637065.58341741 0 1.05637066.47295325 1.05637066 1.05637065 0 .58341741-.47295325 1.05637066-1.05637066 1.05637066zm.27799228-1.17683398c.18423708 0 .33359074-.14935365.33359074-.33359073 0-.18423707-.14935366-.33359073-.33359074-.33359073-.18423707 0-.33359073.14935366-.33359073.33359073 0 .18423708.14935366.33359073.33359073.33359073z" fill="#000"/></g></svg>