<svg viewBox="0 0 370 391" xmlns="http://www.w3.org/2000/svg"><g clip-rule="evenodd" fill-rule="evenodd"><path d="m207.5 22.4 114.4 66.6c13.5 7.9 21.9 22.4 21.9 38v136.4c0 17.3-9.3 33.3-24.5 41.8l-113.5 63.9c-15.1 8.5-33.5 8.4-48.5-.2l-104.5-60.1c-16.4-9.5-26.6-27-26.6-45.9v-129.5c0-19.1 9.9-36.8 26.1-46.8l102.8-63.5c16-9.9 36.2-10.1 52.4-.7z" fill="#ff4088" stroke="#c9177e" stroke-width="27"/><path d="m105.6 298.2v-207.2h43.4v75.5h71.9v-75.5h43.5v207.2h-43.5v-90.6h-71.9v90.6z" fill="#fff"/></g></svg>