<svg height="292" viewBox="0 0 256 292" width="256" xmlns="http://www.w3.org/2000/svg" xmlns:xlink="http://www.w3.org/1999/xlink"><linearGradient id="a" x1="68.188441%" x2="27.822694%" y1="17.486831%" y2="89.755142%"><stop offset="0" stop-color="#41873f"/><stop offset=".3288" stop-color="#418b3d"/><stop offset=".6352" stop-color="#419637"/><stop offset=".9319" stop-color="#3fa92d"/><stop offset="1" stop-color="#3fae2a"/></linearGradient><linearGradient id="b" x1="43.276547%" x2="159.245277%" y1="55.168777%" y2="-18.306138%"><stop offset=".1376" stop-color="#41873f"/><stop offset=".4032" stop-color="#54a044"/><stop offset=".7136" stop-color="#66b848"/><stop offset=".9081" stop-color="#6cc04a"/></linearGradient><linearGradient id="c" x1="-4.388804%" x2="101.499239%" y1="49.997207%" y2="49.997207%"><stop offset=".09191646" stop-color="#6cc04a"/><stop offset=".2864" stop-color="#66b848"/><stop offset=".5968" stop-color="#54a044"/><stop offset=".8624" stop-color="#41873f"/></linearGradient><mask id="d" fill="#fff"><path d="m134.922587 1.83244962c-4.343584-2.44326616-9.50159-2.44326616-13.845175 0l-114.29056154 65.96818658c-4.34358429 2.4432662-6.78685046 7.0583244-6.78685046 11.9448568v132.207847c0 4.886533 2.71474019 9.501591 6.78685046 11.944857l114.29056154 65.968188c4.343585 2.443264 9.501591 2.443264 13.845175 0l114.290561-65.968188c4.343585-2.443266 6.786852-7.058324 6.786852-11.944857v-132.207847c0-4.8865324-2.71474-9.5015906-6.786852-11.9448568z" fill="#fff"/></mask><mask id="e" fill="#fff"><path d="m134.922587 1.83244962c-4.343584-2.44326616-9.50159-2.44326616-13.845175 0l-114.29056154 65.96818658c-4.34358429 2.4432662-6.78685046 7.0583244-6.78685046 11.9448568v132.207847c0 4.886533 2.71474019 9.501591 6.78685046 11.944857l114.29056154 65.968188c4.343585 2.443264 9.501591 2.443264 13.845175 0l114.290561-65.968188c4.343585-2.443266 6.786852-7.058324 6.786852-11.944857v-132.207847c0-4.8865324-2.71474-9.5015906-6.786852-11.9448568z" fill="#fff"/></mask><path d="m134.922587 1.83244962c-4.343584-2.44326616-9.50159-2.44326616-13.845175 0l-114.29056154 65.96818658c-4.34358429 2.4432662-6.78685046 7.0583244-6.78685046 11.9448568v132.207847c0 4.886533 2.71474019 9.501591 6.78685046 11.944857l114.29056154 65.968188c4.343585 2.443264 9.501591 2.443264 13.845175 0l114.290561-65.968188c4.343585-2.443266 6.786852-7.058324 6.786852-11.944857v-132.207847c0-4.8865324-2.71474-9.5015906-6.786852-11.9448568z" fill="url(#a)"/><path d="m249.484623 67.8006362-114.83351-65.96818658c-1.085896-.54294803-2.443266-1.08589606-3.529162-1.35737008l-128.67868483 220.43690346c1.08589607 1.35737 2.44326618 2.443266 3.80063626 3.257688l114.83350957 65.968186c3.257689 1.90032 7.058325 2.443267 10.587487 1.35737l120.805939-220.9798506c-.814422-1.0858961-1.90032-1.9003183-2.986215-2.7147402z" fill="url(#b)" mask="url(#d)"/><path d="m249.756098 223.898195c3.257687-1.900317 5.700955-5.158004 6.786849-8.687166l-125.963944-215.00742421c-3.257688-.54294817-6.78685-.2714742-9.773065 1.62884406l-114.01908754 65.69671245 122.97773054 224.2375407c1.628844-.271475 3.529162-.814423 5.158006-1.628845z" fill="url(#c)" mask="url(#e)"/></svg>