<svg viewBox="0 0 128 128" xmlns="http://www.w3.org/2000/svg" xmlns:xlink="http://www.w3.org/1999/xlink"><linearGradient id="a" gradientUnits="userSpaceOnUse" x1="18.918325" x2="119.14456" y1="3.92209" y2="52.626405"><stop offset=".1" stop-color="#76b3e1"/><stop offset=".3" stop-color="#dcf2fd"/><stop offset="1" stop-color="#76b3e1"/></linearGradient><linearGradient id="b" gradientUnits="userSpaceOnUse" x1="73.901874" x2="56.35222" y1="27.750978" y2="86.196156"><stop offset="0" stop-color="#76b3e1"/><stop offset=".5" stop-color="#4377bb"/><stop offset="1" stop-color="#1f3b77"/></linearGradient><linearGradient id="c" gradientUnits="userSpaceOnUse" x1="11.592552" x2="112.945829" y1="53.189926" y2="122.100494"><stop offset="0" stop-color="#315aa9"/><stop offset=".5" stop-color="#518ac8"/><stop offset="1" stop-color="#315aa9"/></linearGradient><linearGradient id="d" gradientUnits="userSpaceOnUse" x1="57.318256" x2="16.422732" y1="61.481735" y2="211.458824"><stop offset="0" stop-color="#4377bb"/><stop offset=".5" stop-color="#1a336b"/><stop offset="1" stop-color="#1a336b"/></linearGradient><path d="m128 29.683s-42.667-31.396-75.673-24.151l-2.415.805c-4.83 1.61-8.855 4.025-11.27 7.245l-1.61 2.415-12.076 20.931 20.93 4.025c8.856 5.636 20.127 8.05 30.592 5.636l37.031 7.245z" fill="#76b3e1"/><path d="m128 29.683s-42.667-31.396-75.673-24.151l-2.415.805c-4.83 1.61-8.855 4.025-11.27 7.245l-1.61 2.415-12.076 20.931 20.93 4.025c8.856 5.636 20.127 8.05 30.592 5.636l37.031 7.245z" fill="url(#a)" opacity=".3"/><path d="m38.642 29.683-3.22.805c-13.687 4.025-17.712 16.906-10.467 28.176 8.05 10.465 24.956 16.1 38.641 12.076l49.912-16.906s-42.665-31.396-74.866-24.151z" fill="#518ac8"/><path d="m38.642 29.683-3.22.805c-13.687 4.025-17.712 16.906-10.467 28.176 8.05 10.465 24.956 16.1 38.641 12.076l49.912-16.906s-42.665-31.396-74.866-24.151z" fill="url(#b)" opacity=".3"/><path d="m104.654 65.91a36.226 36.226 0 0 0 -38.641-12.076l-49.913 16.1-16.1 28.177 90.164 15.295 16.1-28.981c3.22-5.635 2.415-12.075-1.61-18.516z" fill="url(#c)"/><path d="m88.553 94.085a36.226 36.226 0 0 0 -38.641-12.075l-49.912 16.1s42.667 32.202 75.673 24.152l2.415-.806c13.686-4.025 18.516-16.905 10.465-27.37z" fill="url(#d)"/></svg>