<svg fill="none" height="48" viewBox="0 0 48 48" width="48" xmlns="http://www.w3.org/2000/svg" xmlns:xlink="http://www.w3.org/1999/xlink"><linearGradient id="a" gradientUnits="userSpaceOnUse" x1="6.48163" x2="39.05" y1="1.9759" y2="48.2064"><stop offset="0" stop-color="#49c7ff"/><stop offset="1" stop-color="#bd36ff"/></linearGradient><linearGradient id="b" gradientUnits="userSpaceOnUse" x1="4.39484" x2="38.3093" y1="5.32467" y2="31.584"><stop offset="0" stop-color="#41d1ff"/><stop offset="1" stop-color="#bd34fe"/></linearGradient><linearGradient id="c" gradientUnits="userSpaceOnUse" x1="21.8138" x2="26.2464" y1="13.7047" y2="28.807"><stop offset="0" stop-color="#ffea83"/><stop offset=".0833333" stop-color="#ffdd35"/><stop offset="1" stop-color="#ffa800"/></linearGradient><clipPath id="d"><path d="m0 0h48v48h-48z"/></clipPath><g clip-path="url(#d)"><path d="m5.03628 7.87818c-.28292-2.03863 1.11964-3.92352 3.13271-4.21003l25.51481-3.6314097c2.0131-.2865103 3.8743 1.1338597 4.1572 3.1724897l5.1227 36.91257c.2829 2.0386-1.1196 3.9235-3.1327 4.2101l-25.5148 3.6314c-2.0131.2865-3.8743-1.1339-4.1572-3.1725z" fill="url(#a)"/><path d="m6.85877 7.6188c-.14146-1.01932.55982-1.96177 1.56635-2.10502l25.51478-3.63141c1.0066-.14326 1.9372.56693 2.0787 1.58624l5.1226 36.91259c.1415 1.0193-.5598 1.9618-1.5663 2.105l-25.5148 3.6314c-1.0066.1433-1.9372-.5669-2.0787-1.5862z" fill="#fff"/><path d="m33.1857 14.9195-7.3352 19.2381c-.1514.3971-.6742.4724-.9328.1343l-12.5834-16.458c-.2817-.3684-.0126-.9.4463-.8815l10.1247.4083c.0645.0026.1291-.0066.1903-.027l9.4132-3.1345c.4343-.1446.8415.2886.6769.7203z" fill="url(#b)"/><path d="m27.0251 12.5756-7.0899 2.4671c-.1165.0405-.1908.1559-.1806.2804l.637 7.7399c.015.1823.1988.2998.3672.2347l1.9638-.7585c.1838-.071.3795.0746.3679.2736l-.1803 3.0775c-.012.2071.1991.3533.3848.2664l1.1998-.5614c.186-.0869.3972.0596.3847.2671l-.294 4.8355c-.0184.3025.3904.4088.5158.1342l.0837-.1834 4.2448-12.8473c.071-.2151-.133-.4205-.3451-.3474l-2.0328.7007c-.191.0658-.3844-.0961-.3565-.2986l.6869-4.9822c.028-.2027-.166-.3648-.3572-.2983z" fill="url(#c)"/></g></svg>