<svg fill="#313131" height="800" viewBox="0 0 32 32" width="800" xmlns="http://www.w3.org/2000/svg"><path d="m9.438 31.401c-.63-.422-1.193-.938-1.656-1.536-.516-.615-.984-1.266-1.422-1.938-1.021-1.495-1.818-3.125-2.375-4.849-.667-2-.99-3.917-.99-5.792 0-2.094.453-3.922 1.339-5.458.651-1.198 1.625-2.203 2.797-2.906 1.135-.708 2.453-1.094 3.786-1.12.469 0 .974.068 1.51.198.385.109.854.281 1.427.495.729.281 1.13.453 1.266.495.427.156.786.224 1.068.224.214 0 .516-.068.859-.172.193-.068.557-.188 1.078-.411.516-.188.922-.349 1.245-.469.495-.146.974-.281 1.401-.349.521-.078 1.036-.104 1.531-.063.948.063 1.813.266 2.589.557 1.359.547 2.458 1.401 3.276 2.615-.349.214-.667.458-.969.734-.651.573-1.198 1.25-1.641 2.005-.573 1.026-.865 2.188-.859 3.359.021 1.443.391 2.714 1.12 3.813.521.802 1.208 1.484 2.047 2.047.417.281.776.474 1.12.604-.161.5-.333.984-.536 1.464-.464 1.078-1.016 2.109-1.667 3.083-.578.839-1.031 1.464-1.375 1.88-.536.635-1.052 1.12-1.573 1.458-.573.38-1.25.583-1.938.583-.469.021-.932-.042-1.38-.167-.385-.13-.766-.271-1.141-.432-.391-.177-.792-.333-1.203-.453-.51-.135-1.031-.198-1.552-.198-.536 0-1.057.068-1.547.193-.417.12-.818.26-1.214.432-.557.234-.927.391-1.141.458-.427.125-.87.203-1.318.229-.693 0-1.339-.198-1.979-.599zm9.14-24.615c-.906.453-1.771.646-2.63.583-.135-.865 0-1.75.359-2.719.318-.828.745-1.573 1.333-2.24.609-.693 1.344-1.266 2.172-1.677.88-.453 1.719-.698 2.521-.734.104.906 0 1.797-.333 2.76-.307.854-.76 1.641-1.333 2.344-.583.693-1.302 1.266-2.115 1.682z"/></svg>