<svg fill="none" height="200" viewBox="0 0 200 200" width="200" xmlns="http://www.w3.org/2000/svg"><path d="m73.534 157.549c-2.4967-1.687-4.7279-3.75-6.5628-6.141-2.045-2.459-3.8997-5.062-5.6355-7.748-4.0463-5.978-7.2048-12.494-9.4123-19.387-2.6433-7.997-3.9234-15.661-3.9234-23.157 0-8.3725 1.7953-15.681 5.3065-21.8222 2.58-4.7897 6.44-8.8078 11.0847-11.6185 4.4981-2.8307 9.7214-4.374 15.0042-4.4779 1.8587 0 3.86.2719 5.9842.7916 1.5258.4358 3.3845 1.1235 5.6553 1.9791 2.8891 1.1235 4.4783 1.8111 5.0172 1.9791 1.6923.6237 3.115.8955 4.2329.8955.848 0 2.045-.2718 3.404-.6876.765-.2719 2.207-.7517 4.272-1.6433 2.045-.7516 3.654-1.3953 4.934-1.8751 1.962-.5837 3.86-1.1235 5.552-1.3953 2.065-.3119 4.106-.4158 6.068-.2519 3.757.2519 7.185 1.0635 10.26 2.2269 5.386 2.187 9.741 5.6014 12.983 10.4551-1.383.8556-2.643 1.8312-3.84 2.9347-2.58 2.2909-4.748 4.9976-6.503 8.0162-2.271 4.1021-3.428 8.7479-3.405 13.4296.084 5.769 1.55 10.851 4.439 15.245 2.065 3.206 4.787 5.933 8.112 8.184 1.653 1.124 3.076 1.895 4.439 2.415-.638 1.999-1.32 3.934-2.124 5.853-1.839 4.31-4.027 8.432-6.607 12.326-2.29 3.355-4.086 5.854-5.449 7.517-2.124 2.539-4.169 4.478-6.234 5.829-2.271 1.519-4.954 2.331-7.68 2.331-1.859.084-3.694-.168-5.469-.668-1.526-.519-3.036-1.083-4.522-1.727-1.55-.707-3.139-1.331-4.768-1.811-2.021-.54-4.086-.792-6.15-.792-2.1245 0-4.1892.272-6.1311.772-1.6526.48-3.2418 1.04-4.8112 1.727-2.2074.936-3.6737 1.564-4.5218 1.831-1.6923.5-3.4479.812-5.2234.916-2.7464 0-5.3065-.792-7.8429-2.395zm36.222-98.4137c-3.59 1.8111-7.018 2.5828-10.4225 2.3309-.535-3.4584 0-6.9967 1.4225-10.8709 1.261-3.3105 2.953-6.2891 5.283-8.9558 2.414-2.7707 5.326-5.0616 8.608-6.7049 3.487-1.8111 6.812-2.7907 9.991-2.9346.412 3.6223 0 7.1846-1.32 11.0348-1.217 3.4144-3.012 6.561-5.283 9.3716-2.31 2.7707-5.16 5.0617-8.382 6.7249z" fill="#313131"/></svg>