<svg fill="none" height="200" viewBox="0 0 200 200" width="200" xmlns="http://www.w3.org/2000/svg"><path d="m146.664 56.6262c-8.61-4.0298-17.815-6.9586-27.439-8.6262-1.182 2.1379-2.563 5.0133-3.515 7.3008-10.231-1.5393-20.3674-1.5393-30.4099 0-.9519-2.2875-2.3641-5.1629-3.5566-7.3008-9.6345 1.6676-18.8506 4.6071-27.4599 8.6476-17.3651 26.2524-22.0725 51.8524-19.7188 77.0894 11.5174 8.605 22.6792 13.832 33.6526 17.252 2.7094-3.73 5.1259-7.696 7.2075-11.875-3.9646-1.507-7.7619-3.367-11.3499-5.526.9519-.706 1.883-1.444 2.7825-2.202 21.8842 10.24 45.6615 10.24 67.2845 0 .91.758 1.841 1.496 2.783 2.202-3.599 2.169-7.407 4.029-11.371 5.537 2.081 4.168 4.487 8.145 7.207 11.875 10.984-3.42 22.156-8.647 33.674-17.263 2.761-29.256-4.718-54.621-19.771-77.1108zm-68.2576 61.5908c-6.5694 0-11.9569-6.136-11.9569-13.608 0-7.4712 5.2724-13.6174 11.9569-13.6174 6.6846 0 12.0718 6.1354 11.9568 13.6174.0104 7.472-5.2722 13.608-11.9568 13.608zm44.1866 0c-6.569 0-11.957-6.136-11.957-13.608 0-7.4712 5.273-13.6174 11.957-13.6174 6.685 0 12.072 6.1354 11.957 13.6174 0 7.472-5.272 13.608-11.957 13.608z" fill="#5865f2"/></svg>