<svg fill="none" height="200" viewBox="0 0 200 200" width="200" xmlns="http://www.w3.org/2000/svg"><path clip-rule="evenodd" d="m43.7607 54.8258c3.5907-3.6184 8.4718-5.6608 13.5726-5.6608h86.3337c5.1 0 9.982 2.0424 13.572 5.6608 3.589 3.6166 5.596 8.5107 5.596 13.6028v6.1099c.001.0655.001.1309 0 .1962v55.8363c0 5.093-2.007 9.987-5.596 13.603-3.59 3.619-8.472 5.661-13.572 5.661h-86.3337c-5.1008 0-9.9819-2.042-13.5726-5.661-3.5888-3.616-5.5957-8.51-5.5957-13.603v-55.8362c-.0009-.0654-.0009-.1309 0-.1964v-6.1098c0-5.0921 2.0069-9.9862 5.5957-13.6028zm8.0743 32.6431v43.1021c0 1.501.592 2.929 1.629 3.974 1.0352 1.044 2.4281 1.62 3.8693 1.62h86.3337c1.441 0 2.834-.576 3.869-1.62 1.037-1.045 1.629-2.473 1.629-3.974v-43.1021l-38.006 25.5331c-.001.001-.002.001-.002.002-3.151 2.117-6.859 3.251-10.657 3.251-3.7976 0-7.5057-1.134-10.6566-3.251-.0006-.001-.0013-.001-.002-.002zm97.33-16.4684-45.634 30.6575c-.902.606-1.957.927-3.031.927-1.0744 0-2.1292-.321-3.0314-.927l-45.6336-30.6575v-2.5719c0-1.5004.592-2.9289 1.629-3.9739 1.0352-1.0432 2.4281-1.6197 3.8693-1.6197h86.3337c1.441 0 2.834.5765 3.869 1.6197 1.037 1.045 1.629 2.4735 1.629 3.9739z" fill="#0083ff" fill-rule="evenodd"/></svg>