<svg fill="none" height="200" viewBox="0 0 200 200" width="200" xmlns="http://www.w3.org/2000/svg"><path d="m100.5 162c34.518 0 62.5-27.982 62.5-62.5 0-34.5178-27.982-62.5-62.5-62.5-34.5178 0-62.5 27.9822-62.5 62.5 0 34.518 27.9822 62.5 62.5 62.5z" fill="#3c5a9a"/><path d="m106.977 56.1842c-8.2162 0-17.355 3.4557-17.355 15.3655.0401 4.1498 0 8.1241 0 12.597h-9.5051v15.1254h9.7993v43.5439h18.0068v-43.8313h11.885l1.075-14.8805h-13.271s.03-6.6195 0-8.5418c0-4.7065 4.898-4.437 5.192-4.437 2.331 0 6.862.0068 8.025 0v-14.9412z" fill="#fff"/></svg>