<svg fill="none" height="200" viewBox="0 0 200 200" width="200" xmlns="http://www.w3.org/2000/svg"><path d="m51.8119 62.0001c-11.3975-.0231-26.6203 7.1894-25.7784 25.2992 1.2997 28.2817 30.3299 30.9047 41.9448 31.1447 1.2535 5.292 14.9129 23.591 25.029 24.556h44.2807c26.551-1.755 46.422-80.1827 31.704-80.4689-24.382 1.1543-38.837 1.7315-51.219 1.8285v24.4588l-3.881-1.6854-.023-22.7734c-14.2147 0-26.7408-.6511-50.4978-1.8285-2.9881-.0231-7.1327-.531-11.564-.531zm1.5912 10.006h1.3738c1.6143 14.5036 4.2416 22.9674 9.5657 35.9289-13.59-1.612-25.1262-5.532-27.2494-20.2248-1.1101-7.6004 2.6042-15.5378 16.3099-15.7041zm52.7869 14.2358c.916.023 1.878.1939 2.748.6002l4.625 1.9948-3.302 6.012c-.504 0-1.013.0738-1.494.2401-2.147.6972-3.275 2.7889-2.507 4.7144.166.3836.411.7436.698 1.0576l-5.708 10.389c-.458 0-.939.074-1.3737.24-2.1462.674-3.2749 2.789-2.507 4.692.7956 1.925 3.1547 2.909 5.3237 2.211 2.147-.674 3.252-2.789 2.48-4.714-.218-.503-.532-.96-.962-1.348l5.564-10.103c.601.046 1.203 0 1.809-.194.481-.143.916-.384 1.299-.698 2.147.915 3.904 1.635 5.181 2.263 1.878.937 2.553 1.565 2.771 2.263.194.674-.023 1.971-1.11 4.257-.796 1.708-2.119 4.137-3.687 6.972-.532 0-1.059.074-1.54.24-2.17.698-3.275 2.789-2.507 4.715.772 1.898 3.154 2.886 5.301 2.212 2.169-.698 3.275-2.789 2.507-4.715-.195-.457-.481-.891-.842-1.251 1.54-2.812 2.868-5.241 3.733-7.046 1.156-2.475 1.757-4.332 1.23-6.109-.527-1.778-2.169-2.932-4.311-3.995-1.42-.697-3.205-1.4448-5.301-2.3313.023-.5033-.046-.9882-.24-1.4684-.195-.4802-.505-.9143-.893-1.2975l3.252-5.915 18.044 7.7666c3.252 1.4176 4.603 4.8806 3.011 7.7666l-12.405 22.653c-1.569 2.886-5.468 4.087-8.72 2.669l-25.5144-10.989c-3.2518-1.418-4.6025-4.881-3.0344-7.767l12.4058-22.6533c1.082-1.9948 3.275-3.1768 5.588-3.2692h.384z" fill="#6b943c"/></svg>