<svg fill="#6b943c" height="800" viewBox="0 0 32 32" width="800" xmlns="http://www.w3.org/2000/svg"><path d="m5.583 7.229c-2.464-.005-5.755 1.557-5.573 5.479.281 6.125 6.557 6.693 9.068 6.745.271 1.146 3.224 5.109 5.411 5.318h9.573c5.74-.38 10.036-17.365 6.854-17.427-5.271.25-8.396.375-11.073.396v5.297l-.839-.365-.005-4.932c-3.073 0-5.781-.141-10.917-.396-.646-.005-1.542-.115-2.5-.115zm.344 2.167h.297c.349 3.141.917 4.974 2.068 7.781-2.938-.349-5.432-1.198-5.891-4.38-.24-1.646.563-3.365 3.526-3.401zm11.412 3.083c.198.005.406.042.594.13l1 .432-.714 1.302c-.109 0-.219.016-.323.052-.464.151-.708.604-.542 1.021.036.083.089.161.151.229l-1.234 2.25c-.099 0-.203.016-.297.052-.464.146-.708.604-.542 1.016.172.417.682.63 1.151.479.464-.146.703-.604.536-1.021-.047-.109-.115-.208-.208-.292l1.203-2.188c.13.01.26 0 .391-.042.104-.031.198-.083.281-.151.464.198.844.354 1.12.49.406.203.552.339.599.49.042.146-.005.427-.24.922-.172.37-.458.896-.797 1.51-.115 0-.229.016-.333.052-.469.151-.708.604-.542 1.021.167.411.682.625 1.146.479.469-.151.708-.604.542-1.021-.042-.099-.104-.193-.182-.271.333-.609.62-1.135.807-1.526.25-.536.38-.938.266-1.323s-.469-.635-.932-.865c-.307-.151-.693-.313-1.146-.505.005-.109-.01-.214-.052-.318s-.109-.198-.193-.281l.703-1.281 3.901 1.682c.703.307.995 1.057.651 1.682l-2.682 4.906c-.339.625-1.182.885-1.885.578l-5.516-2.38c-.703-.307-.995-1.057-.656-1.682l2.682-4.906c.234-.432.708-.688 1.208-.708h.083z"/></svg>