<svg fill="none" height="200" viewBox="0 0 200 200" width="200" xmlns="http://www.w3.org/2000/svg"><path d="m99.5 37c-34.5145 0-62.5 28.7109-62.5 64.09 0 28.321 17.9129 52.316 42.7455 60.798.3907.084.7255.112 1.0603.112 2.3159 0 3.2087-1.702 3.2087-3.181 0-1.534-.0558-5.552-.0837-10.909-2.3437.53-4.4364.753-6.3058.753-12.0257 0-14.76-9.347-14.76-9.347-2.846-7.394-6.9476-9.375-6.9476-9.375-5.4408-3.823-.0279-3.934.3906-3.934h.0279c6.2779.558 9.5704 6.64 9.5704 6.64 3.125 5.469 7.3102 7.004 11.0491 7.004 2.9296 0 5.5803-.949 7.1428-1.674.5581-4.13 2.1764-6.948 3.9621-8.566-13.8672-1.619-28.4599-7.115-28.4599-31.6688 0-7.0034 2.4275-12.7232 6.4175-17.1875-.6418-1.6183-2.7902-8.1473.6138-16.9643 0 0 .4464-.1395 1.3951-.1395 2.26 0 7.3661.8649 15.7924 6.7243 4.9944-1.423 10.3237-2.1205 15.6529-2.1484 5.3009.0279 10.6589.7254 15.6529 2.1484 8.426-5.8594 13.532-6.7243 15.792-6.7243.949 0 1.396.1395 1.396.1395 3.404 8.817 1.255 15.346.613 16.9643 3.99 4.4922 6.418 10.212 6.418 17.1875 0 24.6098-14.621 30.0228-28.544 31.6128 2.232 1.981 4.241 5.887 4.241 11.858 0 8.566-.083 15.486-.083 17.578 0 1.507.865 3.209 3.18 3.209.335 0 .726-.028 1.116-.112 24.861-8.482 42.746-32.505 42.746-60.798 0-35.3791-27.985-64.09-62.5-64.09z" fill="#000"/></svg>