<svg fill="none" height="200" viewBox="0 0 200 200" width="200" xmlns="http://www.w3.org/2000/svg"><path d="m160.782 109.32-6.785-20.3636-13.413-40.3992c-.159-.4574-.457-.8536-.852-1.1329-.396-.2792-.868-.4276-1.352-.4242-.483-.0016-.953.1476-1.347.4268-.393.2791-.69.6743-.848 1.1303l-13.414 40.3732h-44.553l-13.4135-40.3819c-.1587-.4551-.4557-.8491-.8494-1.1268-.3936-.2777-.8642-.4251-1.3458-.4216-.4826-.0029-.954.1458-1.3478.4251-.3938.2794-.6902.6753-.8475 1.132l-20.172 60.7628c-.2999.909-.2996 1.89.0008 2.798s.885 1.696 1.6672 2.246l58.598 41.627 58.58-41.627c.785-.548 1.374-1.333 1.68-2.242.305-.908.31-1.89.014-2.802z" fill="#fc6d26"/><path d="m100.499 155.965 22.281-67.0432h-44.5533z" fill="#e24329"/><path d="m100.499 155.965-22.2896-67.0432h-31.1828z" fill="#fc6d26"/><path d="m47.0006 88.9477-6.7759 20.3643c-.2999.908-.2996 1.889.0008 2.797.3004.909.885 1.696 1.6672 2.246l58.6063 41.645-53.4984-67.0436z" fill="#fca326"/><path d="m47.0178 88.9477h31.2174l-13.4307-40.3732c-.1584-.456-.455-.8512-.8486-1.1303-.3935-.2792-.8643-.4284-1.3467-.4269-.4838-.0033-.9565.1451-1.3518.4243-.3952.2793-.6932.6755-.852 1.1329z" fill="#e24329"/><path d="m100.499 155.965 22.281-67.0432h31.234z" fill="#fc6d26"/><path d="m153.997 88.9477 6.767 20.3643c.302.908.302 1.89.002 2.798-.301.909-.886 1.696-1.67 2.245l-58.597 41.61 53.481-67.0173z" fill="#fca326"/><path d="m153.997 88.9477h-31.2l13.405-40.3732c.158-.4582.455-.855.851-1.1345.395-.2795.869-.4273 1.353-.4227.994 0 1.875.6316 2.195 1.5572l13.413 40.3732z" fill="#e24329"/></svg>