<svg fill="none" height="800" viewBox="0 0 16 16" width="800" xmlns="http://www.w3.org/2000/svg"><path d="m14.975 8.904-.785-2.354-1.552-4.67a.268.268 0 0 0 -.255-.18.268.268 0 0 0 -.254.18l-1.552 4.667h-5.155l-1.552-4.668a.267.267 0 0 0 -.254-.179.267.267 0 0 0 -.254.18l-1.55 4.667-.784 2.357a.515.515 0 0 0 .193.583l6.78 4.812 6.778-4.812a.516.516 0 0 0 .196-.583z" fill="#fc6d26"/><path d="m8 14.296 2.578-7.75h-5.155z" fill="#e24329"/><path d="m8 14.296-2.579-7.75h-3.608z" fill="#fc6d26"/><path d="m1.81 6.549-.784 2.354a.515.515 0 0 0 .193.583l6.781 4.814-6.19-7.75z" fill="#fca326"/><path d="m1.812 6.549h3.612l-1.554-4.667a.268.268 0 0 0 -.254-.18.268.268 0 0 0 -.255.18z" fill="#e24329"/><path d="m8 14.296 2.578-7.75h3.614z" fill="#fc6d26"/><path d="m14.19 6.549.783 2.354a.514.514 0 0 1 -.193.583l-6.78 4.81 6.188-7.747h.001z" fill="#fca326"/><path d="m14.19 6.549h-3.61l1.551-4.667a.267.267 0 0 1 .255-.18c.115 0 .217.073.254.18l1.552 4.667z" fill="#e24329"/></svg>