<svg height="800" preserveAspectRatio="xMidYMid" viewBox="-3 0 262 262" width="800" xmlns="http://www.w3.org/2000/svg"><path d="m255.878 133.451c0-10.734-.871-18.567-2.756-26.69h-122.572v48.448h71.947c-1.45 12.04-9.283 30.172-26.69 42.356l-.244 1.622 38.755 30.023 2.685.268c24.659-22.774 38.875-56.282 38.875-96.027" fill="#4285f4"/><path d="m130.55 261.1c35.248 0 64.839-11.605 86.453-31.622l-41.196-31.913c-11.024 7.688-25.82 13.055-45.257 13.055-34.523 0-63.824-22.773-74.269-54.25l-1.531.13-40.298 31.187-.527 1.465c21.468 42.646 65.565 71.948 116.625 71.948" fill="#34a853"/><path d="m56.281 156.37c-2.756-8.123-4.351-16.827-4.351-25.82 0-8.994 1.595-17.697 4.206-25.82l-.073-1.73-40.803-31.688-1.335.635c-8.848 17.697-13.925 37.57-13.925 58.603s5.077 40.905 13.925 58.602z" fill="#fbbc05"/><path d="m130.55 50.479c24.514 0 41.05 10.589 50.479 19.438l36.844-35.974c-22.628-21.033-52.075-33.943-87.323-33.943-51.06 0-95.157 29.301-116.625 71.947l42.211 32.783c10.59-31.477 39.891-54.251 74.414-54.251" fill="#eb4335"/></svg>