<svg fill="none" height="200" viewBox="0 0 200 200" width="200" xmlns="http://www.w3.org/2000/svg"><path d="m157 100.8c0-4.81-.388-8.32-1.228-11.96h-54.609v21.71h32.054c-.646 5.395-4.135 13.52-11.891 18.98l-.108.727 17.266 13.453 1.196.12c10.986-10.205 17.32-25.22 17.32-43.03z" fill="#4285f4"/><path d="m101.163 158c15.704 0 28.888-5.2 38.517-14.17l-18.354-14.3c-4.911 3.445-11.503 5.85-20.163 5.85-15.3806 0-28.4349-10.205-33.0884-24.31l-.6821.058-17.9538 13.975-.2348.657c9.5646 19.11 29.2109 32.24 51.9591 32.24z" fill="#34a853"/><path d="m68.0746 111.07c-1.2279-3.64-1.9385-7.54-1.9385-11.57 0-4.0303.7106-7.9301 1.8739-11.5701l-.0325-.7752-18.1788-14.1995-.5948.2845c-3.942 7.9301-6.2039 16.8353-6.2039 26.2603s2.2619 18.33 6.2039 26.26z" fill="#fbbc05"/><path d="m101.163 63.6198c10.922 0 18.289 4.745 22.49 8.7103l16.415-16.1201c-10.082-9.425-23.201-15.21-38.905-15.21-22.7482 0-42.3945 13.1299-51.9591 32.2397l18.8061 14.6902c4.7181-14.1049 17.7724-24.3101 33.153-24.3101z" fill="#eb4335"/></svg>