<svg height="800" viewBox="0 -56.12 180.433 180.433" width="800" xmlns="http://www.w3.org/2000/svg"><path clip-rule="evenodd" d="m7.228 68.066h27.952c3.976 0 7.228-3.253 7.228-7.229v-.603c0-3.976-3.252-7.228-7.228-7.228h-20.121v-45.778c0-3.976-3.252-7.228-7.228-7.228h-.603c-3.976 0-7.228 3.252-7.228 7.228v53.609c0 3.976 3.252 7.229 7.228 7.229zm173.205-33.604v-.603c0-3.976-3.253-7.228-7.229-7.228h-20.12v-11.444h20.12c3.976 0 7.229-3.252 7.229-7.228v-.603c0-3.976-3.253-7.228-7.229-7.228h-27.952c-3.976 0-7.228 3.252-7.228 7.228v53.609c0 3.976 3.252 7.229 7.228 7.229h27.952c3.976 0 7.229-3.253 7.229-7.229v-.603c0-3.976-3.253-7.228-7.229-7.228h-20.12v-11.444h20.12c3.976 0 7.229-3.252 7.229-7.228zm-53.755 31.449.002-.003a7.207 7.207 0 0 0 2.09-5.07v-53.61c0-3.976-3.252-7.228-7.229-7.228h-.603c-3.976 0-7.228 3.252-7.228 7.228v31.469l-26.125-35.042c-1.248-2.178-3.598-3.655-6.276-3.655h-.603c-3.976 0-7.229 3.252-7.229 7.228v53.609c0 3.976 3.252 7.229 7.229 7.229h.603c3.976 0 7.228-3.253 7.228-7.229v-32.057l26.314 35.941c.162.252.339.494.53.724l.001.002c.723.986 1.712 1.662 2.814 2.075.847.35 1.773.544 2.742.544h.603a7.162 7.162 0 0 0 3.377-.844c.722-.345 1.331-.788 1.76-1.311zm-71.208 2.155h.603c3.976 0 7.228-3.253 7.228-7.229v-53.609c-.001-3.976-3.253-7.228-7.229-7.228h-.602c-3.976 0-7.229 3.252-7.229 7.228v53.609c0 3.976 3.253 7.229 7.229 7.229z" fill="#3ace01" fill-rule="evenodd"/></svg>