<svg fill="none" height="200" viewBox="0 0 200 200" width="200" xmlns="http://www.w3.org/2000/svg"><path clip-rule="evenodd" d="m28.2492 128.889h24.167c3.4376 0 6.2492-2.814 6.2492-6.254v-.522c0-3.44-2.8116-6.253-6.2492-6.253h-17.3964v-39.6065c0-3.4399-2.8116-6.2535-6.2492-6.2535h-.5214c-3.4376 0-6.2492 2.8136-6.2492 6.2535v46.3815c0 3.44 2.8116 6.254 6.2492 6.254zm149.7508-29.0732v-.5217c0-3.44-2.812-6.2535-6.25-6.2535h-17.396v-9.9011h17.396c3.438 0 6.25-2.8136 6.25-6.2535v-.5217c0-3.44-2.812-6.2536-6.25-6.2536h-24.167c-3.438 0-6.249 2.8136-6.249 6.2536v46.3817c0 3.44 2.811 6.254 6.249 6.254h24.167c3.438 0 6.25-2.814 6.25-6.254v-.522c0-3.44-2.812-6.254-6.25-6.254h-17.396v-9.901h17.396c3.438 0 6.25-2.813 6.25-6.2532zm-46.476 27.2092.002-.003c1.156-1.167 1.806-2.743 1.807-4.386v-46.3825c0-3.4399-2.812-6.2535-6.25-6.2535h-.522c-3.437 0-6.249 2.8136-6.249 6.2535v27.2265l-22.5872-30.3178c-1.079-1.8843-3.1107-3.1622-5.4261-3.1622h-.5213c-3.4376 0-6.2502 2.8136-6.2502 6.2535v46.3815c0 3.44 2.8117 6.254 6.2502 6.254h.5213c3.4376 0 6.2492-2.814 6.2492-6.254v-27.7352l22.7511 31.0952c.14.218.293.428.458.627l.001.001c.625.853 1.48 1.438 2.433 1.796.732.302 1.533.47 2.37.47h.522c1.018.001 2.021-.25 2.919-.73.625-.298 1.151-.682 1.522-1.134zm-61.5654 1.864h.5214c3.4376 0 6.2492-2.814 6.2492-6.254v-46.3815c-.0009-3.4399-2.8125-6.2535-6.2501-6.2535h-.5205c-3.4376 0-6.2501 2.8136-6.2501 6.2535v46.3815c0 3.44 2.8125 6.254 6.2501 6.254z" fill="#3ace01" fill-rule="evenodd"/></svg>