<svg fill="none" height="200" viewBox="0 0 200 200" width="200" xmlns="http://www.w3.org/2000/svg"><path d="m153.637 113.74c-1.632 8.324-14.614 17.433-29.524 19.199-7.775.92-15.43 1.765-23.593 1.394-13.3497-.607-23.8835-3.16-23.8835-3.16 0 1.289.0802 2.516.2405 3.664 1.7355 13.064 13.0636 13.846 23.794 14.211 10.831.368 20.475-2.648 20.475-2.648l.445 9.709s-7.576 4.034-21.071 4.776c-7.4417.406-16.6816-.186-27.4437-3.01-23.341-6.126-27.3551-30.798-27.9693-55.831-.1872-7.4326-.0718-14.4411-.0718-20.3027 0-25.5978 16.9137-33.1009 16.9137-33.1009 8.5283-3.8838 23.1621-5.5171 38.3751-5.6404h.374c15.214.1233 29.857 1.7566 38.385 5.6404 0 0 16.913 7.5031 16.913 33.1009 0 0 .212 18.8857-2.359 31.9987z" fill="#5045ff"/><path d="m136.046 83.7271v30.9949h-12.384v-30.0839c0-6.3416-2.691-9.5604-8.073-9.5604-5.951 0-8.933 3.8184-8.933 11.3685v16.4668h-12.3108v-16.4668c0-7.5501-2.9832-11.3685-8.9341-11.3685-5.3823 0-8.0732 3.2188-8.0732 9.5604v30.0839h-12.3834v-30.9949c0-6.3346 1.6265-11.3685 4.8937-15.0927 3.3692-3.7242 7.7814-5.6333 13.2586-5.6333 6.337 0 11.1358 2.4152 14.3088 7.2462l3.0844 5.1273 3.085-5.1273c3.173-4.831 7.971-7.2462 14.309-7.2462 5.477 0 9.889 1.9091 13.259 5.6333 3.266 3.7242 4.893 8.7581 4.893 15.0927z" fill="#fff"/></svg>