<svg height="800" preserveAspectRatio="xMidYMid" viewBox="-9 0 274 274" width="800" xmlns="http://www.w3.org/2000/svg"><path d="m249.874103 164.084793c-3.752996 19.307649-33.613272 40.437972-67.907834 44.533087-17.883134 2.133825-35.490507 4.095115-54.265807 3.233917-30.7052532-1.40682-54.9338246-7.329032-54.9338246-7.329032 0 2.989124.1843318 5.835207.5529954 8.496959 3.9918894 30.302672 30.0475572 32.117972 54.7288482 32.964423 24.911336.852351 47.093087-6.141935 47.093087-6.141935l1.02341 22.520922s-17.424516 9.356682-48.464516 11.077603c-17.116313.94083-38.369032-.430599-63.1225804-6.982488-53.6862672-14.20977-62.91907831-71.436682-64.3317972-129.502673-.43059908-17.240184-.16516129-33.496774-.16516129-47.0930875 0-59.3754839 38.90285719-76.7793549 38.90285719-76.7793549 19.6158525-9.00866355 53.2748387-12.79705065 88.2669127-13.0831336h.859723c34.992074.28608295 68.67318 4.07447005 88.287558 13.0831336 0 0 38.901382 17.403871 38.901382 76.7793549 0 0 .488111 43.8075575-5.425253 74.2223045" fill="#5045FF"/><path d="m209.412536 94.4687189v71.8938251h-28.482949v-69.7806454c0-14.7096774-6.189125-22.1758525-18.568848-22.1758525-13.687742 0-20.547834 8.8567742-20.547834 26.3697699v38.195023h-28.314839v-38.195023c0-17.5129957-6.861567-26.3697699-20.5493088-26.3697699-12.3797235 0-18.5688479 7.4661751-18.5688479 22.1758525v69.7806454h-28.4829493v-71.8938251c0-14.6934562 3.7411981-26.3697696 11.2560368-35.0082949 7.7493088-8.6385254 17.8978802-13.0669125 30.4958526-13.0669125 14.5754836 0 25.6132716 5.602212 32.9113366 16.8081106l7.094562 11.8930876 7.096037-11.8930876c7.29659-11.2058986 18.334378-16.8081106 32.911336-16.8081106 12.596498 0 22.745069 4.4283871 30.495853 13.0669125 7.513364 8.6385253 11.254562 20.3148387 11.254562 35.0082949" fill="#fff"/></svg>