<svg fill="none" height="200" viewBox="0 0 200 200" width="200" xmlns="http://www.w3.org/2000/svg"><g fill="#00af6b" stroke="#00af6b"><path d="m127.012 78.1918c.65-.698 1.004-1.6211.987-2.5749-.016-.9539-.403-1.8639-1.077-2.5385-.675-.6746-1.585-1.061-2.539-1.0778-.954-.0169-1.877.3372-2.575.9876l-46.6362 46.6368c-.3617.337-.6518.743-.8531 1.195-.2012.451-.3094.939-.3181 1.433-.0087.495.0822.986.2674 1.444.1851.459.4608.875.8104 1.225.3496.349.7661.625 1.2245.81.4585.185.9495.276 1.4439.267.4943-.008.9819-.116 1.4335-.318.4516-.201.8581-.491 1.1952-.853z" stroke-width="8"/><path d="m100.5 39.4583c33.159 0 60.042 26.8823 60.042 60.0417 0 33.159-26.883 60.042-60.042 60.042-33.1593 0-60.0416-26.883-60.0416-60.042 0-33.1594 26.8823-60.0417 60.0416-60.0417zm-51.8541 60.0417c0 13.753 5.4632 26.942 15.1877 36.666 9.7245 9.725 22.9139 15.188 36.6664 15.188 13.753 0 26.942-5.463 36.666-15.188 9.725-9.724 15.188-22.913 15.188-36.666 0-13.7526-5.463-26.9419-15.188-36.6664-9.724-9.7246-22.913-15.1878-36.666-15.1878-13.7525 0-26.9419 5.4632-36.6664 15.1878-9.7245 9.7245-15.1877 22.9138-15.1877 36.6664z" stroke-width="6"/></g></svg>