<svg fill="none" height="200" viewBox="0 0 200 200" width="200" xmlns="http://www.w3.org/2000/svg"><path d="m148.559 94.9212c6.319 0 11.441-5.1224 11.441-11.4413s-5.123-11.4414-11.442-11.4414-11.443 5.1229-11.443 11.4423v11.4404zm-32.04 0c6.32 0 11.443-5.1229 11.443-11.4423v-32.0366c0-6.3194-5.123-11.4423-11.443-11.4423-6.319 0-11.442 5.1229-11.442 11.4423v32.0366c0 6.3194 5.123 11.4423 11.442 11.4423z" fill="#2eb67d"/><path d="m52.4413 104.079c-6.3189 0-11.4413 5.122-11.4413 11.441s5.1229 11.442 11.4418 11.442c6.3194 0 11.4428-5.123 11.4428-11.443v-11.44zm32.0395 0c-6.3194 0-11.4423 5.123-11.4423 11.442v32.037c0 6.319 5.1229 11.442 11.4423 11.442 6.3193 0 11.4423-5.123 11.4423-11.442v-32.037c0-6.319-5.123-11.442-11.4423-11.442z" fill="#e01e5a"/><path d="m105.079 147.559c0 6.319 5.122 11.441 11.441 11.441s11.442-5.123 11.442-11.442-5.123-11.443-11.443-11.443h-11.44zm0-32.04c0 6.32 5.123 11.443 11.442 11.443h32.037c6.319 0 11.442-5.123 11.442-11.443 0-6.319-5.123-11.442-11.442-11.442h-32.037c-6.319 0-11.442 5.123-11.442 11.442z" fill="#ecb22e"/><path d="m95.9212 51.4413c0-6.3189-5.1224-11.4413-11.4413-11.4413s-11.4414 5.1229-11.4414 11.4418c0 6.3195 5.1229 11.4428 11.4423 11.4428h11.4404zm0 32.0395c0-6.3194-5.1229-11.4423-11.4423-11.4423h-32.0366c-6.3194 0-11.4423 5.1229-11.4423 11.4423 0 6.3193 5.1229 11.4423 11.4423 11.4423h32.0366c6.3194 0 11.4423-5.123 11.4423-11.4423z" fill="#36c5f0"/></svg>