<svg fill="none" height="200" viewBox="0 0 200 200" width="200" xmlns="http://www.w3.org/2000/svg" xmlns:xlink="http://www.w3.org/1999/xlink"><linearGradient id="a" gradientUnits="userSpaceOnUse" x1="100.5" x2="100.5" y1="37" y2="162"><stop offset="0" stop-color="#111d2e"/><stop offset=".21248" stop-color="#051839"/><stop offset=".40695" stop-color="#0a1b48"/><stop offset=".5811" stop-color="#132e62"/><stop offset=".7376" stop-color="#144b7e"/><stop offset=".87279" stop-color="#136497"/><stop offset="1" stop-color="#1387b8"/></linearGradient><path d="m40.5433 117.477c7.7267 25.757 31.6281 44.523 59.9157 44.523 34.54 0 62.541-27.983 62.541-62.5 0-34.5177-28.001-62.5-62.541-62.5-33.1444 0-60.2646 25.7666-62.4066 58.3478 0 9.3602 0 13.2672 2.4909 22.1292z" fill="url(#a)"/><path d="m97.2449 84.1558-15.3039 22.2172c-3.6076-.164-7.2394.856-10.2541 2.838l-33.6051-13.8253s-.7776 12.7843 2.463 22.3123l23.757 9.796c1.1928 5.327 4.8497 10 10.2449 12.248 8.827 3.686 19.0048-.515 22.6767-9.34.9559-2.307 1.4014-4.727 1.3367-7.141l22.4339-15.628c13.105 0 23.755-10.6754 23.755-23.7861 0-13.1115-10.65-23.7778-23.755-23.7778-12.657 0-24.4585 11.0437-23.7491 24.0867zm-3.6773 44.7112c-2.842 6.819-10.6828 10.054-17.4985 7.216-3.1442-1.309-5.5181-3.707-6.8876-6.566l7.7331 3.202c5.0264 2.093 10.7931-.29 12.8824-5.311 2.096-5.027-.2817-10.799-5.3055-12.891l-7.9939-3.311c3.0845-1.169 6.5912-1.212 9.8676.151 3.3028 1.373 5.8657 3.959 7.2238 7.264 1.3585 3.304 1.3532 6.952-.0214 10.246zm27.4264-29.1733c-8.723 0-15.825-7.1084-15.825-15.8468 0-8.7313 7.102-15.8416 15.825-15.8416 8.73 0 15.831 7.1103 15.831 15.8416 0 8.7384-7.101 15.8468-15.831 15.8468zm-11.858-15.8709c0-6.5732 5.325-11.905 11.885-11.905 6.566 0 11.891 5.3318 11.891 11.905 0 6.5741-5.325 11.9009-11.891 11.9009-6.56 0-11.885-5.3268-11.885-11.9009z" fill="#fff"/></svg>