<svg fill="none" height="200" viewBox="0 0 200 200" width="200" xmlns="http://www.w3.org/2000/svg"><path d="m151.059 51.9449c-17.018 7.0743-89.9888 37.4109-110.1506 45.6791-13.5214 5.296-5.6058 10.262-5.6058 10.262s11.5422 3.971 21.437 6.95c9.8935 2.98 15.1701-.33 15.1701-.33l46.5003-31.4457c16.49-11.2543 12.533-1.9866 8.574 1.9865-8.574 8.6069-22.755 22.1762-34.6276 33.1002-5.2766 4.634-2.639 8.606-.3292 10.592 8.5738 7.283 31.9898 22.178 33.3088 23.171 6.966 4.95 20.67 12.076 22.755-2.979l8.245-51.9678c2.639-17.5428 5.276-33.7627 5.605-38.3965.991-11.2556-10.882-6.6218-10.882-6.6218z" fill="#1b92d1"/></svg>