<svg height="800" viewBox="0 0 100 100" width="800" xmlns="http://www.w3.org/2000/svg"><path d="m88.723 12.142c-12.304 5.096-65.062 26.949-79.639 32.905-9.776 3.815-4.053 7.392-4.053 7.392s8.345 2.861 15.499 5.007c7.153 2.146 10.968-.238 10.968-.238l33.62-22.652c11.922-8.107 9.061-1.431 6.199 1.431-6.199 6.2-16.452 15.975-25.036 23.844-3.815 3.338-1.908 6.199-.238 7.63 6.199 5.246 23.129 15.976 24.082 16.691 5.037 3.566 14.945 8.699 16.452-2.146 0 0 5.961-37.435 5.961-37.435 1.908-12.637 3.815-24.321 4.053-27.659.716-8.108-7.868-4.77-7.868-4.77z" fill="#1b92d1"/></svg>