<svg fill="none" height="200" viewBox="0 0 200 200" width="200" xmlns="http://www.w3.org/2000/svg"><path d="m62.8838 118.671c.7684-6.37 3.3775-9.936 8.2942-13.592 7.0353-4.952 15.8228-2.151 15.8228-2.151v-16.6158c2.1368-.0551 4.2741.0719 6.3868.3786v21.3832s-8.7851-2.801-15.8199 2.154c-4.9142 3.653-7.5287 7.222-8.2944 13.592-.024 3.459.6243 7.98 3.6098 11.89-.7385-.379-1.4907-.811-2.2572-1.295-6.5762-4.422-7.7741-11.056-7.7421-15.744zm66.7892-63.0822c-4.839-5.31-6.67-10.6712-7.331-14.4374h6.088s-1.214 9.875 7.632 19.5861l.123.1306c-2.384-1.5018-4.571-3.2744-6.512-5.2793zm29.327 15.0543v20.9531s-7.768-.3043-13.517-1.7689c-8.028-2.0485-13.188-5.1899-13.188-5.1899s-3.564-2.24-3.852-2.396v43.2686c0 2.409-.659 8.426-2.668 13.444-2.622 6.565-6.669 10.873-7.414 11.754 0 0-4.922 5.824-13.606 9.747-7.8269 3.538-14.6994 3.449-16.7536 3.538 0 0-11.8797.471-22.5697-6.485-2.3117-1.533-4.4695-3.27-6.4455-5.187l.0533.038c10.6927 6.956 22.5697 6.485 22.5697 6.485 2.0571-.089 8.9292 0 16.754-3.538 8.6758-3.922 13.6058-9.747 13.6058-9.747.737-.88 4.802-5.19 7.414-11.756 2.004-5.016 2.668-11.035 2.668-13.444v-43.2637c.288.1585 3.85 2.3985 3.85 2.3985s5.162 3.1444 13.189 5.1899c5.752 1.4646 13.518 1.7694 13.518 1.7694v-16.4193c2.657.5965 4.922.758 6.392.6093z" fill="#ee1d52"/><path d="m152.613 70.0338v16.4138s-7.767-.3047-13.518-1.7688c-8.028-2.0485-13.19-5.1899-13.19-5.1899s-3.562-2.24-3.85-2.399v43.2741c0 2.409-.659 8.428-2.668 13.444-2.622 6.567-6.669 10.876-7.413 11.756 0 0-4.925 5.825-13.6063 9.747-7.8249 3.539-14.6969 3.449-16.7541 3.539 0 0-11.877.471-22.5697-6.485l-.0533-.039c-1.1289-1.095-2.1916-2.25-3.1827-3.461-3.4122-4.166-5.5037-9.092-6.0293-10.498-.0009-.006-.0009-.012 0-.017-.8457-2.443-2.6225-8.309-2.3797-13.99.4295-10.023 3.951-16.176 4.8821-17.717 2.4659-4.203 5.673-7.9635 9.4788-11.1138 3.3583-2.719 7.1649-4.8822 11.2634-6.401 4.4309-1.7831 9.1755-2.7392 13.9796-2.816v16.6158s-8.7881-2.79-15.8204 2.151c-4.9167 3.656-7.5258 7.222-8.2941 13.592-.032 4.688 1.1658 11.322 7.7366 15.746.7665.486 1.5187.918 2.2572 1.295 1.1476 1.494 2.5449 2.797 4.1349 3.854 6.4188 4.068 11.7971 4.352 18.675 1.71 4.586-1.767 8.038-5.748 9.639-10.159 1.006-2.755.992-5.528.992-8.395v-81.5706h16.007c.662 3.7662 2.492 9.1274 7.331 14.4374 1.941 2.0049 4.128 3.7775 6.512 5.2793.705.7296 4.306 4.337 8.93 6.5517 2.39 1.1448 4.91 2.0218 7.51 2.614z" fill="#000"/><g fill="#69c9d0"><path d="m43.4056 133.264v.013l.3971 1.078c-.0456-.126-.1932-.507-.3971-1.091z"/><path d="m73.0213 89.1277c-4.0986 1.5193-7.9051 3.6825-11.2635 6.401-3.8069 3.1577-7.0133 6.9263-9.4761 11.1373-.9311 1.536-4.4526 7.693-4.8821 17.717-.2428 5.681 1.534 11.547 2.3797 13.989-.0009.006-.0009.012 0 .018.5335 1.393 2.6171 6.319 6.0293 10.497.9911 1.211 2.0538 2.367 3.1827 3.462-3.6171-2.401-6.8429-5.303-9.5722-8.613-3.3828-4.13-5.469-9.004-6.0133-10.443-.0006-.011-.0006-.021 0-.031v-.018c-.8483-2.44-2.6304-8.308-2.3823-13.997.4295-10.023 3.951-16.176 4.8821-17.717 2.462-4.2118 5.6685-7.9804 9.4761-11.137 3.3576-2.72 7.1644-4.8832 11.2635-6.401 2.5569-1.0181 5.2207-1.7689 7.945-2.24 4.1054-.6877 8.2988-.7478 12.4239-.1767v4.7364c-4.8085.0754-9.558 1.0314-13.9928 2.816z"/><path d="m122.34 41.1513h-16.007v81.5727c0 2.867 0 5.633-.992 8.395-1.617 4.409-5.056 8.39-9.6391 10.157-6.8799 2.652-12.2583 2.358-18.6745-1.71-1.593-1.053-2.9938-2.351-4.1457-3.841 5.4663 2.798 10.3589 2.75 16.4201.415 4.5809-1.767 8.025-5.748 9.6362-10.159 1.0084-2.755.9952-5.528.9952-8.393v-81.588h22.1028s-.248 2.0277.304 5.1513zm30.269 24.343v4.5393c-2.594-.593-5.11-1.4701-7.496-2.614-4.623-2.2146-8.225-5.822-8.929-6.5517.817.5149 1.665.9834 2.539 1.403 5.621 2.6934 11.157 3.4974 13.886 3.2234z"/></g></svg>