<svg fill="none" height="200" viewBox="0 0 200 200" width="200" xmlns="http://www.w3.org/2000/svg"><path d="m149.998 73.8905c.078 1.1284.078 2.2567.078 3.3954 0 34.6971-26.21 74.7141-74.1367 74.7141v-.021c-14.1575.021-28.021-4.066-39.9393-11.772 2.0586.25 4.1276.375 6.2017.38 11.7326.01 23.1298-3.957 32.3601-11.263-11.1496-.213-20.9268-7.539-24.3423-18.235 3.9057.759 7.93.603 11.7635-.452-12.1557-2.475-20.9009-13.2388-20.9009-25.7388v-.3327c3.6219 2.033 7.6772 3.1614 11.8254 3.2862-11.4488-7.7112-14.9779-23.0606-8.0642-35.0614 13.2289 16.4049 32.7471 26.3779 53.6996 27.4334-2.0999-9.1202.7688-18.6772 7.5381-25.0884 10.494-9.9418 26.999-9.4322 36.864 1.1387 5.836-1.1595 11.428-3.3173 16.547-6.3748-1.946 6.0785-6.016 11.2417-11.454 14.5227 5.164-.6135 10.21-2.007 14.962-4.1337-3.498 5.2829-7.904 9.8846-13.002 13.6023z" fill="#1d9bf0"/></svg>