<svg height="800" viewBox="0 0 100 100" width="800" xmlns="http://www.w3.org/2000/svg"><g fill="#1AB84E"><path d="m94.791 52.869c-9.972-22.342-48.887-20.406-54.745 4.042-3.238 13.797 8.968 25.973 21.941 27.989 5.602 1.138 11.399.462 16.843-1.106 3.269 1.266 6.181 3.316 9.349 4.838-.819-2.745-1.693-5.459-2.625-8.161 9.087-5.959 13.895-17.324 9.237-27.602zm-31.802 2.03c-.811 2.531-4.488 3.292-6.27 1.367-1.965-1.782-1.2-5.505 1.378-6.301 2.85-1.204 6.142 2.085 4.892 4.934zm18.615.362c-.996 2.272-4.429 2.802-6.117 1.044-1.433-1.371-1.433-3.789-.165-5.273 2.958-3.398 8 .438 6.282 4.229z"/><path d="m7.216 26.891c-8.017 12.807-2.706 28.4 9.563 36.224-1.165 3.3-2.271 6.597-3.32 9.92 3.786-1.98 7.571-4.05 11.36-6.061 4.543 1.456 9.376 2.17 14.21 2.011-1.281-3.661-1.573-7.629-.99-11.458 2.552-14.923 18.794-23.355 32.963-22.072-6.387-28.258-49.152-32.351-63.786-8.564zm23.086 4.255c-.668 3.242-5.012 4.807-7.556 2.632-2.947-2.077-2.12-7.226 1.34-8.274 3.389-1.304 7.241 2.136 6.216 5.642zm23.524-.947c.031 3.731-4.95 6.061-7.746 3.529-2.9-2.077-2.077-7.132 1.328-8.177 3.08-1.231 6.661 1.364 6.418 4.648z"/></g></svg>