<svg fill="none" height="200" viewBox="0 0 200 200" width="200" xmlns="http://www.w3.org/2000/svg"><g fill="#1ab84e"><path d="m163.462 104.337c-14.017-31.4058-68.72-28.6844-76.9546 5.682-4.5516 19.394 12.6063 36.51 30.8426 39.344 7.874 1.6 16.023.649 23.676-1.555 4.595 1.78 8.688 4.662 13.142 6.801-1.152-3.859-2.38-7.674-3.69-11.472 12.773-8.376 19.532-24.352 12.984-38.8zm-44.704 2.854c-1.14 3.558-6.308 4.627-8.813 1.921-2.763-2.505-1.687-7.738 1.937-8.857 4.006-1.6924 8.633 2.931 6.876 6.936zm26.167.509c-1.4 3.193-6.226 3.938-8.598 1.467-2.015-1.927-2.015-5.326-.232-7.412 4.158-4.7766 11.245.616 8.83 5.945z"/><path d="m40.3585 67.8201c-11.2695 18.0027-3.8038 39.9219 13.4426 50.9199-1.6376 4.639-3.1923 9.273-4.6669 13.944 5.322-2.783 10.6425-5.693 15.9687-8.52 6.3861 2.047 13.1798 3.051 19.9749 2.827-1.8007-5.146-2.2111-10.724-1.3916-16.106 3.5873-20.9773 26.4188-32.8301 46.3358-31.0266-8.978-39.7221-69.0926-45.4756-89.6635-12.0383zm32.4518 5.9812c-.939 4.5572-7.0453 6.7572-10.6214 3.6998-4.1426-2.9197-2.9801-10.1576 1.8837-11.6307 4.7638-1.8331 10.1786 3.0025 8.7377 7.9309zm33.0677-1.3312c.043 5.2446-6.9583 8.5199-10.8886 4.9607-4.0765-2.9196-2.9196-10.0254 1.8668-11.4944 4.3298-1.7304 9.3628 1.9174 9.0218 6.5337z"/></g></svg>