<svg fill="none" height="13" viewBox="0 0 13 13" width="13" xmlns="http://www.w3.org/2000/svg"><path d="m6.50016 1.625c2.92072 0 5.35064 2.10154 5.86004 4.875-.5094 2.77344-2.93932 4.875-5.86004 4.875-2.92076 0-5.35066-2.10156-5.860105-4.875.509445-2.77346 2.939345-4.875 5.860105-4.875zm0 8.6667c2.29429 0 4.25754-1.59687 4.75444-3.7917-.4969-2.19482-2.46015-3.79167-4.75444-3.79167-2.29433 0-4.25754 1.59685-4.75449 3.79167.49695 2.19483 2.46016 3.7917 4.75449 3.7917zm0-1.3542c-1.34621 0-2.43752-1.0913-2.43752-2.4375 0-1.34619 1.09131-2.4375 2.43752-2.4375 1.34615 0 2.4375 1.09131 2.4375 2.4375 0 1.3462-1.09135 2.4375-2.4375 2.4375zm0-1.08333c.74788 0 1.35417-.60629 1.35417-1.35417s-.60629-1.35417-1.35417-1.35417-1.35419.60629-1.35419 1.35417.60631 1.35417 1.35419 1.35417z" fill="#636c76"/></svg>