<svg fill="none" height="18" viewBox="0 0 18 18" width="18" xmlns="http://www.w3.org/2000/svg"><path d="m7.5 5.25c0 2.8995 2.3505 5.25 5.25 5.25 1.4688 0 2.7967-.60323 3.7496-1.57538.0004.02513.0004.05025.0004.07538 0 4.1421-3.3579 7.5-7.5 7.5-4.14214 0-7.5-3.3579-7.5-7.5 0-4.14214 3.35786-7.5 7.5-7.5.02512 0 .05025 0 .07537.00037-.97215.95286-1.57537 2.28081-1.57537 3.74963zm-4.5 3.75c0 3.3137 2.68629 6 6 6 2.2937 0 4.2868-1.2871 5.2965-3.1784-.5006.1174-1.0189.1784-1.5465.1784-3.72795 0-6.75-3.02205-6.75-6.75 0-.52764.061-1.0459.17842-1.5465-1.89134 1.00967-3.17842 3.00277-3.17842 5.2965z" fill="#000"/></svg>