<svg fill="none" height="13" viewBox="0 0 13 13" width="13" xmlns="http://www.w3.org/2000/svg" xmlns:xlink="http://www.w3.org/1999/xlink"><clipPath id="a"><path d="m0 0h13v13h-13z"/></clipPath><g clip-path="url(#a)"><path d="m9.68646 10.4524c-.92153.5843-2.0144.9227-3.1863.9227-2.92076 0-5.35066-2.10155-5.860105-4.87499.236535-1.28775.887075-2.43062 1.808535-3.28555l-1.693691-1.69368.766041-.766039 10.72446 10.724459-.766.7661zm-6.47134-6.47131c-.71981.65566-1.24464 1.52614-1.46945 2.51902.49695 2.19478 2.46016 3.79169 4.75449 3.79169.86635 0 1.68551-.2277 2.39634-.62933l-1.09867-1.09866c-.37575.23676-.82073.3738-1.29767.3738-1.34621 0-2.43752-1.09135-2.43752-2.4375 0-.47699.13699-.92197.37378-1.29771zm3.77991 3.77991-1.75578-1.75576c-.06021.1533-.09328.32018-.09328.49487 0 .74788.60631 1.35417 1.35419 1.35417.17464 0 .34158-.0331.49487-.09328zm4.27537 1.22661-.7751-.77502c.3553-.5064.6172-1.08501.7593-1.71248-.4969-2.19484-2.46015-3.79169-4.75444-3.79169-.45819 0-.90317.06369-1.32589.1831l-.85477-.85477c.67535-.26572 1.41095-.41166 2.18066-.41166 2.92072 0 5.35064 2.10154 5.86004 4.87502-.1691.92062-.5498 1.76724-1.0898 2.4875zm-4.9205-4.92047c.04968-.00302.09978-.00455.15026-.00455 1.34615 0 2.4375 1.0913 2.4375 2.43752 0 .05043-.00157.10053-.00455.1502z" fill="#636c76"/></g></svg>