<svg fill="none" height="18" viewBox="0 0 18 18" width="18" xmlns="http://www.w3.org/2000/svg" xmlns:xlink="http://www.w3.org/1999/xlink"><clipPath id="a"><path d="m0 0h18v18h-18z"/></clipPath><g clip-path="url(#a)"><path d="m9 13.5c-2.48528 0-4.5-2.0147-4.5-4.5 0-2.48528 2.01472-4.5 4.5-4.5 2.4853 0 4.5 2.01472 4.5 4.5 0 2.4853-2.0147 4.5-4.5 4.5zm0-1.5c1.6568 0 3-1.3432 3-3 0-1.65686-1.3432-3-3-3-1.65686 0-3 1.34314-3 3 0 1.6568 1.34314 3 3 3zm-.75-11.25h1.5v2.25h-1.5zm0 14.25h1.5v2.25h-1.5zm-5.61396-11.3033 1.06066-1.06066 1.59099 1.59099-1.06066 1.06066zm10.07626 10.0763 1.0607-1.0607 1.591 1.591-1.0607 1.0607zm1.591-11.13696 1.0607 1.06066-1.591 1.59099-1.0607-1.06066zm-10.07627 10.07626 1.06066 1.0607-1.59099 1.591-1.06066-1.0607zm13.02297-4.4623v1.5h-2.25v-1.5zm-14.25 0v1.5h-2.25v-1.5z" fill="#fff"/></g></svg>