<svg fill="none" height="20" viewBox="0 0 20 20" width="20" xmlns="http://www.w3.org/2000/svg"><path d="m9.16667 1.66667c4.14003 0 7.50003 3.36 7.50003 7.5 0 4.14003-3.36 7.50003-7.50003 7.50003-4.14 0-7.5-3.36-7.5-7.50003 0-4.14 3.36-7.5 7.5-7.5zm0 13.33333c3.22293 0 5.83333-2.6104 5.83333-5.83333 0-3.22292-2.6104-5.83334-5.83333-5.83334-3.22292 0-5.83334 2.61042-5.83334 5.83334 0 3.22293 2.61042 5.83333 5.83334 5.83333zm7.07113.0593 2.3569 2.357-1.1784 1.1784-2.357-2.3569z" fill="#636c76"/></svg>