<svg fill="none" height="20" viewBox="0 0 20 20" width="20" xmlns="http://www.w3.org/2000/svg"><path d="m15.8333 18.3333h-11.66663c-1.38071 0-2.5-1.1192-2.5-2.5v-13.3333c0-.46023.3731-.83333.83333-.83333h11.6667c.4602 0 .8333.3731.8333.83333v10h3.3333v3.3333c0 1.3808-1.1192 2.5-2.5 2.5zm-.8333-4.1666v1.6666c0 .4603.3731.8334.8333.8334.4603 0 .8334-.3731.8334-.8334v-1.6666zm-1.6667 2.5v-13.33337h-9.99997v12.49997c0 .4603.3731.8334.83334.8334zm-8.3333-10.83337h6.6667v1.66667h-6.6667zm0 3.33334h6.6667v1.66663h-6.6667zm0 3.33333h4.16667v1.6667h-4.16667z" fill="#636c76"/></svg>