<svg fill="none" height="20" viewBox="0 0 20 20" width="20" xmlns="http://www.w3.org/2000/svg"><path d="m2.5 4.16257c0-.91821.74385-1.66257 1.66257-1.66257h11.67483c.9183 0 1.6626.74385 1.6626 1.66257v11.67483c0 .9183-.7438 1.6626-1.6626 1.6626h-11.67483c-.91821 0-1.66257-.7438-1.66257-1.6626zm1.66667.0041v11.66663h11.66663v-11.66663zm2.4768 10.98403c-.51558-.2233-1.00415-.4971-1.45945-.8154 1.03909-1.6059 2.846-2.6686 4.90118-2.6686 1.9994 0 3.7639 1.0059 4.8149 2.5393-.4469.3303-.9281.6171-1.4372.8538-.7569-1.046-1.9879-1.7265-3.3777-1.7265-1.42978 0-2.69128.7201-3.44173 1.8174zm3.35653-4.3174c-1.61083 0-2.91667-1.3058-2.91667-2.91663 0-1.61084 1.30584-2.91667 2.91667-2.91667 1.6108 0 2.9167 1.30583 2.9167 2.91667 0 1.61083-1.3059 2.91663-2.9167 2.91663zm0-1.66663c.6903 0 1.25-.55967 1.25-1.25 0-.69036-.5597-1.25-1.25-1.25-.69033 0-1.25.55964-1.25 1.25 0 .69033.55967 1.25 1.25 1.25z" fill="#636c76"/></svg>