<svg fill="none" height="20" viewBox="0 0 20 20" width="20" xmlns="http://www.w3.org/2000/svg"><path d="m10 .833333 7.9167 4.583337v9.16663l-7.9167 4.5834-7.91666-4.5834v-9.16663zm0 1.925837-6.25 3.61842v7.24481l6.25 3.6184 6.25-3.6184v-7.24481zm0 10.57413c-1.84095 0-3.33333-1.4924-3.33333-3.3333 0-1.84095 1.49238-3.33333 3.33333-3.33333 1.8409 0 3.3333 1.49238 3.3333 3.33333 0 1.8409-1.4924 3.3333-3.3333 3.3333zm0-1.6666c.9205 0 1.6667-.7462 1.6667-1.6667s-.7462-1.66667-1.6667-1.66667-1.66666.74617-1.66666 1.66667.74616 1.6667 1.66666 1.6667z" fill="#636c76"/></svg>