<svg fill="none" height="20" viewBox="0 0 20 20" width="20" xmlns="http://www.w3.org/2000/svg"><path d="m5.00007 4.92853-1.91075 1.91075-1.17851-1.17851 3.92259-3.92259 3.9226 3.92259-1.1785 1.17851-1.91077-1.91075v4.23814h-1.66666zm9.16673 2.98816c1.1505 0 2.0833-.93274 2.0833-2.08333s-.9328-2.08333-2.0833-2.08333c-1.1506 0-2.0834.93274-2.0834 2.08333s.9328 2.08333 2.0834 2.08333zm0 1.66664c-2.0711 0-3.75-1.67891-3.75-3.74997 0-2.07107 1.6789-3.75 3.75-3.75 2.071 0 3.7499 1.67893 3.7499 3.75 0 2.07106-1.6789 3.74997-3.7499 3.74997zm3.9225 4.75587-1.1785-1.1785-1.9107 1.9108v-4.2382h-1.6667v4.2382l-1.9107-1.9108-1.1785 1.1785 3.9226 3.9226zm-13.92257 1.4941h3.33333l.00001-3.3333h-3.33334zm4.16669-5c.46025 0 .83333.3731.83333.8334v5c0 .4602-.37308.8333-.83333.8333h-5.00003c-.46023 0-.83333-.3731-.83332-.8333v-5c0-.4603.37309-.8334.83333-.8334z" fill="#636c76"/></svg>