<svg fill="none" height="20" viewBox="0 0 20 20" width="20" xmlns="http://www.w3.org/2000/svg"><path d="m16.7362 12.6666 1.0017.6011c.1974.1184.2613.3743.1429.5716-.0352.0587-.0842.1078-.1429.1429l-7.3091 4.3855c-.2639.1584-.59363.1584-.85746 0l-7.30915-4.3855c-.19732-.1184-.26131-.3743-.14291-.5716.03519-.0587.08426-.1078.14291-.1429l1.00174-.6011 6.73617 4.0416zm0-3.91668 1.0017.60108c.1974.11842.2613.37433.1429.57167-.0352.05866-.0842.10773-.1429.14293l-7.7378 4.6427-7.73791-4.6427c-.19732-.11843-.26131-.37435-.14291-.57168.03519-.05867.08426-.10775.14291-.14292l1.00174-.60108 6.73617 4.04168zm-6.3074-7.65939 7.3091 4.38547c.1974.11839.2613.37433.1429.57166-.0352.05865-.0842.10773-.1429.14291l-7.7378 4.64263-7.73791-4.64263c-.19732-.11839-.26131-.37433-.14291-.57165.03519-.05865.08426-.10773.14291-.14292l7.30915-4.38547c.26383-.15833.59356-.15833.85746 0zm-.4287 1.68641-5.09397 3.05635 5.09397 3.05638 5.0939-3.05638z" fill="#636c76"/></svg>